<svg width="58" height="59" viewBox="0 0 58 59" fill="none" xmlns="http://www.w3.org/2000/svg">
<g filter="url(#filter0_dd_1_10)">
<path d="M19.0833 28.8338V14.1671C19.0833 12.9577 19.0833 12.3523 19.3456 11.9945C19.5744 11.6822 19.9272 11.4771 20.3188 11.4281C20.7673 11.372 21.3174 11.6567 22.4161 12.2255L36.5828 19.5588L36.5879 19.561C37.8021 20.1895 38.4094 20.5039 38.6087 20.923C38.7825 21.2885 38.7825 21.7105 38.6087 22.076C38.4092 22.4957 37.8004 22.8114 36.5828 23.4416L22.4161 30.775C21.3166 31.3441 20.7675 31.6278 20.3188 31.5716C19.9272 31.5226 19.5744 31.3176 19.3456 31.0053C19.0833 30.6474 19.0833 30.0432 19.0833 28.8338Z" stroke="#090909" stroke-width="2" stroke-linecap="round" stroke-linejoin="round"/>
</g>
<defs>
<filter id="filter0_dd_1_10" x="-6" y="-5" width="70" height="69" filterUnits="userSpaceOnUse" color-interpolation-filters="sRGB">
<feFlood flood-opacity="0" result="BackgroundImageFix"/>
<feColorMatrix in="SourceAlpha" type="matrix" values="0 0 0 0 0 0 0 0 0 0 0 0 0 0 0 0 0 0 127 0" result="hardAlpha"/>
<feOffset dy="4"/>
<feGaussianBlur stdDeviation="2"/>
<feColorMatrix type="matrix" values="0 0 0 0 0 0 0 0 0 0 0 0 0 0 0 0 0 0 0.3 0"/>
<feBlend mode="normal" in2="BackgroundImageFix" result="effect1_dropShadow_1_10"/>
<feColorMatrix in="SourceAlpha" type="matrix" values="0 0 0 0 0 0 0 0 0 0 0 0 0 0 0 0 0 0 127 0" result="hardAlpha"/>
<feMorphology radius="6" operator="dilate" in="SourceAlpha" result="effect2_dropShadow_1_10"/>
<feOffset dy="8"/>
<feGaussianBlur stdDeviation="6"/>
<feColorMatrix type="matrix" values="0 0 0 0 0 0 0 0 0 0 0 0 0 0 0 0 0 0 0.15 0"/>
<feBlend mode="normal" in2="effect1_dropShadow_1_10" result="effect2_dropShadow_1_10"/>
<feBlend mode="normal" in="SourceGraphic" in2="effect2_dropShadow_1_10" result="shape"/>
</filter>
</defs>
</svg>
